<?xml version="1.0" encoding="utf-8"?>
<!-- Generator: Adobe Illustrator 24.1.2, SVG Export Plug-In . SVG Version: 6.00 Build 0)  -->
<svg version="1.1" id="Layer_1" xmlns="http://www.w3.org/2000/svg" xmlns:xlink="http://www.w3.org/1999/xlink" x="0px" y="0px"
	 viewBox="0 0 1094 366" style="enable-background:new 0 0 1094 366;" xml:space="preserve">
<g>
	<g>
		<path d="M12.2,265.4c-0.1-1.3,0.2-2,0.8-2c7.7,0,13.3-0.5,16.9-1.7c3.6-1.1,6.1-3.3,7.5-6.5c1.4-3.2,2.1-8.1,2.1-14.8V87.1
			c-0.2-6.6-1-11.5-2.2-14.6c-1.3-3.1-3.7-5.2-7.2-6.5c-3.5-1.2-9.1-1.8-16.7-1.8c-0.4,0-0.7-0.7-0.8-2c-0.1-1.3,0.2-2,0.8-2l14,0.3
			c8.1,0.4,14.8,0.7,20.1,0.7c5.3,0,12.2-0.2,20.7-0.7l14.7-0.3c0.4,0,0.6,0.7,0.6,2c0,1.3-0.2,2-0.6,2c-7.9,0-13.6,0.6-17.2,1.8
			c-3.6,1.2-6.1,3.4-7.3,6.6c-1.3,3.2-2,8.1-2.2,14.8v151.8c0.2,6.6,0.9,11.4,2.1,14.4c1.2,3,3.5,5,7,6.1c3.5,1.1,9.1,1.7,16.7,1.7
			h41.8c12.1,0,21.1-3.7,27-11.1c5.8-7.4,9.7-18,11.6-31.7c0-0.7,0.5-1,1.6-1c0.6,0,1.2,0.1,1.8,0.3c0.5,0.2,0.8,0.6,0.8,1
			c-1.5,13.5-2.2,28-2.2,43.4c0,1.8-0.4,3-1.3,3.8c-0.9,0.8-2.2,1.2-4.1,1.2H13C12.6,267.4,12.3,266.8,12.2,265.4z"/>
		<path d="M185.4,62.6C179.1,79,215,113,211.2,132.2c-5.5,27.5-44.8,28.6-51.5,0C154.7,110.5,188,56,185.4,62.6z"/>
		<path d="M438.8,264.5c0,1.3-0.3,2-1,2c-3.4,0-8.7-0.2-16-0.7c-8.1-0.4-14.5-0.7-19.1-0.7c-4.7,0-10.6,0.2-17.9,0.7
			c-6.8,0.4-11.9,0.7-15.3,0.7c-0.9,0-1.3-0.7-1.3-2c0-1.3,0.4-2,1.3-2c8.1,0,13.7-0.8,16.9-2.3c3.2-1.5,4.8-4.3,4.8-8.3
			c0-3.3-1-7.7-2.9-13.3l-29-84.5h-54.2l-26.8,68.3c-4,10.6-6.1,18.9-6.1,24.9c0,6,1.9,10,5.7,12.1c3.8,2.1,9.8,3.1,17.9,3.1
			c0.8,0,1.3,0.7,1.3,2c0,1.3-0.5,2-1.6,2c-2.6,0-7.4-0.2-14.7-0.7c-8.5-0.4-15-0.7-19.5-0.7c-5.1,0-11.1,0.2-17.9,0.7
			c-6,0.4-10.8,0.7-14.7,0.7c-0.8,0-1.3-0.7-1.3-2c0-1.3,0.4-2,1.3-2c15.5,0,28.2-11.9,38-35.8L336.4,56c0.4-0.9,1.4-1.3,2.9-1.3
			c1.9,0,3.2,0.6,3.8,1.7l62.5,182.3c2.3,6.6,4.6,11.6,6.7,14.8c2.1,3.2,5.1,5.5,8.9,7c3.8,1.4,9.4,2.2,16.6,2.2
			C438.5,262.5,438.8,263.2,438.8,264.5z M307.7,147.8h49.4l-23-67L307.7,147.8z"/>
		<path d="M605.7,61.3c0,1.3-0.4,2-1.3,2c-6.8,0-12.6,1.6-17.2,4.8c-4.7,3.2-8.5,9.2-11.5,18.1l-65.4,180c-0.2,0.9-1.3,1.3-3.2,1.3
			c-2.3,0-3.6-0.4-3.8-1.3L429.9,86.8c-3.2-8.6-6.8-14.7-10.7-18.2c-3.9-3.5-9-5.3-15.2-5.3c-0.6,0-1-0.7-1.1-2
			c-0.1-1.3,0.3-2,1.1-2l12.4,0.3c6,0.4,10.1,0.7,12.4,0.7c5.7,0,12.7-0.2,20.7-0.7l12.8-0.3c0.8,0,1.3,0.7,1.3,2s-0.4,2-1.3,2
			c-12.3,0-18.5,3.5-18.5,10.6c0,3.1,0.7,6.3,2.2,9.6l66.7,160.1L569,84.2c1.3-3.8,1.9-7,1.9-9.6c0-4-1.8-6.8-5.3-8.6
			c-3.5-1.8-9.4-2.7-17.7-2.7c-0.4,0-0.6-0.7-0.6-2s0.2-2,0.6-2l11.8,0.3c6.8,0.4,12.8,0.7,17.9,0.7c4,0,8.6-0.2,13.7-0.7l13.1-0.3
			C605.3,59.3,605.7,60,605.7,61.3z"/>
		<path d="M659.4,257c-14.4-9-25.5-21.2-33.3-36.6c-7.9-15.5-11.8-32.7-11.8-51.7c0-21,4.8-40.1,14.5-57.3
			c9.7-17.2,22.8-30.8,39.4-40.8c16.6-9.9,35-14.9,55.2-14.9c18.9,0,35.5,4.4,49.6,13.1c14.1,8.7,25,20.8,32.7,36.1
			c7.7,15.4,11.5,32.7,11.5,51.9c0,21.9-4.9,41.5-14.7,58.8c-9.8,17.4-22.9,30.8-39.4,40.4c-16.5,9.6-34.5,14.4-54.1,14.4
			C690.3,270.5,673.8,266,659.4,257z M764.6,250.4c11.7-7.6,20.7-18.3,27.1-32c6.4-13.7,9.6-29.5,9.6-47.4c0-20.3-3.9-38.7-11.8-55
			c-7.9-16.4-18.7-29.2-32.5-38.5c-13.8-9.3-29.3-13.9-46.6-13.9c-15.5,0-29.4,3.8-41.6,11.3c-12.2,7.5-21.7,18.2-28.6,32.2
			c-6.8,13.9-10.2,30.2-10.2,48.7c0,20.1,4.1,38.2,12.3,54.4c8.2,16.1,19.4,28.8,33.7,38c14.2,9.2,30.1,13.8,47.5,13.8
			C739.1,261.8,752.9,258,764.6,250.4z M874.8,347c-17.5-4.6-39.5-11.5-65.9-20.6c-23.8-8-43.1-13.9-57.9-17.9
			c-14.8-4-27.7-6-38.8-6c-8.3,0-16.9,1.1-25.8,3.3c-8.9,2.2-16,5.9-21.1,10.9H665c-0.4,0-1-0.5-1.6-1.5c-0.6-1-0.9-1.6-0.6-1.8
			c6.8-6.9,15.6-12.5,26.3-16.9c10.7-4.4,22.2-6.6,34.3-6.6c11.5,0,24.1,1.9,38,5.6c13.8,3.8,31,9.4,51.7,16.9
			c26.8,9.3,49.6,16.4,68.3,21.2c18.7,4.9,37.3,7.3,55.8,7.3c7.4,0,13.2-0.7,17.4-2c4.1-1.3,8.1-3.5,12-6.6c0.2-0.2,0.5-0.3,1-0.3
			c0.6,0,1.2,0.4,1.8,1.3c0.5,0.9,0.5,1.4-0.2,1.7c-6,6.2-12.6,10.9-19.9,14.1c-7.3,3.2-16.1,4.8-26.3,4.8
			C908.3,354,892.3,351.7,874.8,347z"/>
		<path d="M1080.2,266.5c1.3,0-33.8,0-34.6,0h-33.5c-5.5,0-15.8-9.6-30.8-28.7c-15-19.1-33.2-45.8-54.7-80.1
			c-7.4,2.2-14.5,3.3-21.1,3.3c-4,0-8.4-0.2-13.1-0.7l-0.6,79.2c0.2,6.9,1,11.8,2.2,14.9c1.3,3.1,3.7,5.2,7.3,6.3
			c3.6,1.1,9.6,1.7,17.9,1.7c0.8,0,26.6,1.7,26.6,3.1c0,1.3-25.6,0.9-26.3,0.9c-6.4,0-11.4-0.1-15-0.3l-21.7-0.3l-21.1,0.3
			c-3.8,0.2-9,0.3-15.6,0.3c-0.9,0-20.4,0.4-20.4-0.9c0-1.3,19.6-3.1,20.4-3.1c8.3,0,14.5-0.6,18.5-1.8c4-1.2,6.9-3.4,8.5-6.5
			c1.6-3.1,2.4-8,2.4-14.6V86.1c-0.2-6.6-1-11.5-2.4-14.6c-1.4-3.1-4-5.2-7.8-6.5c-3.8-1.2-9.9-1.8-18.2-1.8c-0.9,0-1.3-0.7-1.3-2
			s0.4-2,1.3-2l15.6,0.3c8.5,0.4,15.4,0.7,20.7,0.7c3.6,0,7.1-0.1,10.5-0.3c3.4-0.2,6.4-0.4,8.9-0.7c6.4-0.7,12.1-1,17.2-1
			c16.6,0,29.3,3.6,38.3,10.9c8.9,7.3,13.4,17.5,13.4,30.5c0,10.6-2.9,20.6-8.8,29.8c-5.9,9.3-13.7,16.8-23.4,22.5
			c18.3,28.3,33.5,50.3,45.8,66c12.2,15.7,23.1,27,32.5,34c9.5,7,18.8,9,27.6,10.4C1046.9,262.7,1076.4,266.5,1080.2,266.5z
			 M911,153.8c15.3,0,26.3-3.4,33-10.1c6.7-6.7,10-17.6,10-32.7c0-17-3.7-29.3-11-37c-7.3-7.6-17.4-11.4-30.1-11.4
			c-6,0-10.3,0.4-12.9,1.3c-2.7,0.9-4.6,3-5.9,6.3c-1.3,3.3-2,8.8-2.2,16.6v65.6C900.3,153.3,906.7,153.8,911,153.8z"/>
	</g>
	<g>
		<path d="M12.2,265.4c-0.1-1.3,0.2-2,0.8-2c7.7,0,13.3-0.5,16.9-1.7c3.6-1.1,6.1-3.3,7.5-6.5c1.4-3.2,2.1-8.1,2.1-14.8V87.1
			c-0.2-6.6-1-11.5-2.2-14.6c-1.3-3.1-3.7-5.2-7.2-6.5c-3.5-1.2-9.1-1.8-16.7-1.8c-0.4,0-0.7-0.7-0.8-2c-0.1-1.3,0.2-2,0.8-2l14,0.3
			c8.1,0.4,14.8,0.7,20.1,0.7c5.3,0,12.2-0.2,20.7-0.7l14.7-0.3c0.4,0,0.6,0.7,0.6,2c0,1.3-0.2,2-0.6,2c-7.9,0-13.6,0.6-17.2,1.8
			c-3.6,1.2-6.1,3.4-7.3,6.6c-1.3,3.2-2,8.1-2.2,14.8v151.8c0.2,6.6,0.9,11.4,2.1,14.4c1.2,3,3.5,5,7,6.1c3.5,1.1,9.1,1.7,16.7,1.7
			h41.8c12.1,0,21.1-3.7,27-11.1c5.8-7.4,9.7-18,11.6-31.7c0-0.7,0.5-1,1.6-1c0.6,0,1.2,0.1,1.8,0.3c0.5,0.2,0.8,0.6,0.8,1
			c-1.5,13.5-2.2,28-2.2,43.4c0,1.8-0.4,3-1.3,3.8c-0.9,0.8-2.2,1.2-4.1,1.2H13C12.6,267.4,12.3,266.8,12.2,265.4z"/>
		<path d="M185.4,62.6C179.1,79,215,113,211.2,132.2c-5.5,27.5-44.8,28.6-51.5,0C154.7,110.5,188,56,185.4,62.6z"/>
		<path d="M438.8,264.5c0,1.3-0.3,2-1,2c-3.4,0-8.7-0.2-16-0.7c-8.1-0.4-14.5-0.7-19.1-0.7c-4.7,0-10.6,0.2-17.9,0.7
			c-6.8,0.4-11.9,0.7-15.3,0.7c-0.9,0-1.3-0.7-1.3-2c0-1.3,0.4-2,1.3-2c8.1,0,13.7-0.8,16.9-2.3c3.2-1.5,4.8-4.3,4.8-8.3
			c0-3.3-1-7.7-2.9-13.3l-29-84.5h-54.2l-26.8,68.3c-4,10.6-6.1,18.9-6.1,24.9c0,6,1.9,10,5.7,12.1c3.8,2.1,9.8,3.1,17.9,3.1
			c0.8,0,1.3,0.7,1.3,2c0,1.3-0.5,2-1.6,2c-2.6,0-7.4-0.2-14.7-0.7c-8.5-0.4-15-0.7-19.5-0.7c-5.1,0-11.1,0.2-17.9,0.7
			c-6,0.4-10.8,0.7-14.7,0.7c-0.8,0-1.3-0.7-1.3-2c0-1.3,0.4-2,1.3-2c15.5,0,28.2-11.9,38-35.8L336.4,56c0.4-0.9,1.4-1.3,2.9-1.3
			c1.9,0,3.2,0.6,3.8,1.7l62.5,182.3c2.3,6.6,4.6,11.6,6.7,14.8c2.1,3.2,5.1,5.5,8.9,7c3.8,1.4,9.4,2.2,16.6,2.2
			C438.5,262.5,438.8,263.2,438.8,264.5z M307.7,147.8h49.4l-23-67L307.7,147.8z"/>
		<path d="M605.7,61.3c0,1.3-0.4,2-1.3,2c-6.8,0-12.6,1.6-17.2,4.8c-4.7,3.2-8.5,9.2-11.5,18.1l-65.4,180c-0.2,0.9-1.3,1.3-3.2,1.3
			c-2.3,0-3.6-0.4-3.8-1.3L429.9,86.8c-3.2-8.6-6.8-14.7-10.7-18.2c-3.9-3.5-9-5.3-15.2-5.3c-0.6,0-1-0.7-1.1-2
			c-0.1-1.3,0.3-2,1.1-2l12.4,0.3c6,0.4,10.1,0.7,12.4,0.7c5.7,0,12.7-0.2,20.7-0.7l12.8-0.3c0.8,0,1.3,0.7,1.3,2s-0.4,2-1.3,2
			c-12.3,0-18.5,3.5-18.5,10.6c0,3.1,0.7,6.3,2.2,9.6l66.7,160.1L569,84.2c1.3-3.8,1.9-7,1.9-9.6c0-4-1.8-6.8-5.3-8.6
			c-3.5-1.8-9.4-2.7-17.7-2.7c-0.4,0-0.6-0.7-0.6-2s0.2-2,0.6-2l11.8,0.3c6.8,0.4,12.8,0.7,17.9,0.7c4,0,8.6-0.2,13.7-0.7l13.1-0.3
			C605.3,59.3,605.7,60,605.7,61.3z"/>
		<path d="M659.4,257c-14.4-9-25.5-21.2-33.3-36.6c-7.9-15.5-11.8-32.7-11.8-51.7c0-21,4.8-40.1,14.5-57.3
			c9.7-17.2,22.8-30.8,39.4-40.8c16.6-9.9,35-14.9,55.2-14.9c18.9,0,35.5,4.4,49.6,13.1c14.1,8.7,25,20.8,32.7,36.1
			c7.7,15.4,11.5,32.7,11.5,51.9c0,21.9-4.9,41.5-14.7,58.8c-9.8,17.4-22.9,30.8-39.4,40.4c-16.5,9.6-34.5,14.4-54.1,14.4
			C690.3,270.5,673.8,266,659.4,257z M764.6,250.4c11.7-7.6,20.7-18.3,27.1-32c6.4-13.7,9.6-29.5,9.6-47.4c0-20.3-3.9-38.7-11.8-55
			c-7.9-16.4-18.7-29.2-32.5-38.5c-13.8-9.3-29.3-13.9-46.6-13.9c-15.5,0-29.4,3.8-41.6,11.3c-12.2,7.5-21.7,18.2-28.6,32.2
			c-6.8,13.9-10.2,30.2-10.2,48.7c0,20.1,4.1,38.2,12.3,54.4c8.2,16.1,19.4,28.8,33.7,38c14.2,9.2,30.1,13.8,47.5,13.8
			C739.1,261.8,752.9,258,764.6,250.4z M874.8,347c-17.5-4.6-39.5-11.5-65.9-20.6c-23.8-8-43.1-13.9-57.9-17.9
			c-14.8-4-27.7-6-38.8-6c-8.3,0-16.9,1.1-25.8,3.3c-8.9,2.2-16,5.9-21.1,10.9H665c-0.4,0-1-0.5-1.6-1.5c-0.6-1-0.9-1.6-0.6-1.8
			c6.8-6.9,15.6-12.5,26.3-16.9c10.7-4.4,22.2-6.6,34.3-6.6c11.5,0,24.1,1.9,38,5.6c13.8,3.8,31,9.4,51.7,16.9
			c26.8,9.3,49.6,16.4,68.3,21.2c18.7,4.9,37.3,7.3,55.8,7.3c7.4,0,13.2-0.7,17.4-2c4.1-1.3,8.1-3.5,12-6.6c0.2-0.2,0.5-0.3,1-0.3
			c0.6,0,1.2,0.4,1.8,1.3c0.5,0.9,0.5,1.4-0.2,1.7c-6,6.2-12.6,10.9-19.9,14.1c-7.3,3.2-16.1,4.8-26.3,4.8
			C908.3,354,892.3,351.7,874.8,347z"/>
		<path d="M1080.2,266.5c1.3,0-33.8,0-34.6,0h-33.5c-5.5,0-15.8-9.6-30.8-28.7c-15-19.1-33.2-45.8-54.7-80.1
			c-7.4,2.2-14.5,3.3-21.1,3.3c-4,0-8.4-0.2-13.1-0.7l-0.6,79.2c0.2,6.9,1,11.8,2.2,14.9c1.3,3.1,3.7,5.2,7.3,6.3
			c3.6,1.1,9.6,1.7,17.9,1.7c0.8,0,26.6,1.7,26.6,3.1c0,1.3-25.6,0.9-26.3,0.9c-6.4,0-11.4-0.1-15-0.3l-21.7-0.3l-21.1,0.3
			c-3.8,0.2-9,0.3-15.6,0.3c-0.9,0-20.4,0.4-20.4-0.9c0-1.3,19.6-3.1,20.4-3.1c8.3,0,14.5-0.6,18.5-1.8c4-1.2,6.9-3.4,8.5-6.5
			c1.6-3.1,2.4-8,2.4-14.6V86.1c-0.2-6.6-1-11.5-2.4-14.6c-1.4-3.1-4-5.2-7.8-6.5c-3.8-1.2-9.9-1.8-18.2-1.8c-0.9,0-1.3-0.7-1.3-2
			s0.4-2,1.3-2l15.6,0.3c8.5,0.4,15.4,0.7,20.7,0.7c3.6,0,7.1-0.1,10.5-0.3c3.4-0.2,6.4-0.4,8.9-0.7c6.4-0.7,12.1-1,17.2-1
			c16.6,0,29.3,3.6,38.3,10.9c8.9,7.3,13.4,17.5,13.4,30.5c0,10.6-2.9,20.6-8.8,29.8c-5.9,9.3-13.7,16.8-23.4,22.5
			c18.3,28.3,33.5,50.3,45.8,66c12.2,15.7,23.1,27,32.5,34c9.5,7,18.8,9,27.6,10.4C1046.9,262.7,1076.4,266.5,1080.2,266.5z
			 M911,153.8c15.3,0,26.3-3.4,33-10.1c6.7-6.7,10-17.6,10-32.7c0-17-3.7-29.3-11-37c-7.3-7.6-17.4-11.4-30.1-11.4
			c-6,0-10.3,0.4-12.9,1.3c-2.7,0.9-4.6,3-5.9,6.3c-1.3,3.3-2,8.8-2.2,16.6v65.6C900.3,153.3,906.7,153.8,911,153.8z"/>
	</g>
</g>
</svg>
